<svg xmlns="http://www.w3.org/2000/svg" width="2440" height="3840"><path d="M951,2437L1029,2937L1622,2627Z" fill="#67beca" stroke="#67beca" stroke-width="1.51"/><path d="M1029,2937L1358,3109L1622,2627Z" fill="#5cb4c9" stroke="#5cb4c9" stroke-width="1.51"/><path d="M1444,1722L1202,1705L951,2437Z" fill="#7bccc4" stroke="#7bccc4" stroke-width="1.51"/><path d="M1967,3110L1808,2525L1622,2627Z" fill="#48abcf" stroke="#48abcf" stroke-width="1.51"/><path d="M1358,3109L1967,3110L1622,2627Z" fill="#4baacd" stroke="#4baacd" stroke-width="1.51"/><path d="M1311,3714L1639,3388L1358,3109Z" fill="#4ea3c3" stroke="#4ea3c3" stroke-width="1.51"/><path d="M1358,3109L1639,3388L1728,3301Z" fill="#48a3c7" stroke="#48a3c7" stroke-width="1.51"/><path d="M2450,3094L1967,3110L2158,3946Z" fill="#2b8abe" stroke="#2b8abe" stroke-width="1.51"/><path d="M1728,3301L1967,3110L1358,3109Z" fill="#43a4ca" stroke="#43a4ca" stroke-width="1.51"/><path d="M1444,1722L951,2437L1622,2627Z" fill="#6dc2ca" stroke="#6dc2ca" stroke-width="1.51"/><path d="M1808,2525L1444,1722L1622,2627Z" fill="#5fbbce" stroke="#5fbbce" stroke-width="1.51"/><path d="M1029,2937L1065,3580L1358,3109Z" fill="#60afc2" stroke="#60afc2" stroke-width="1.51"/><path d="M281,3340L1065,3580L1029,2937Z" fill="#73b2bb" stroke="#73b2bb" stroke-width="1.51"/><path d="M951,2437L325,2933L1029,2937Z" fill="#7dc2c3" stroke="#7dc2c3" stroke-width="1.51"/><path d="M1202,1705L353,2317L951,2437Z" fill="#88cec1" stroke="#88cec1" stroke-width="1.51"/><path d="M353,2317L325,2933L951,2437Z" fill="#8bcbc7" stroke="#8bcbc7" stroke-width="1.51"/><path d="M1808,2525L2059,2044L1444,1722Z" fill="#60bacd" stroke="#60bacd" stroke-width="1.51"/><path d="M2506,2458L2059,2044L1808,2525Z" fill="#4da7c8" stroke="#4da7c8" stroke-width="1.51"/><path d="M1065,3580L1311,3714L1358,3109Z" fill="#57a6bf" stroke="#57a6bf" stroke-width="1.51"/><path d="M2158,3946L1967,3110L1728,3301Z" fill="#3492c2" stroke="#3492c2" stroke-width="1.51"/><path d="M1202,1705L231,2136L353,2317Z" fill="#95d4c0" stroke="#95d4c0" stroke-width="1.51"/><path d="M1444,1722L1176,1507L1202,1705Z" fill="#84cec2" stroke="#84cec2" stroke-width="1.51"/><path d="M1329,1205L1176,1507L1444,1722Z" fill="#88cfc1" stroke="#88cfc1" stroke-width="1.51"/><path d="M353,2317L-456,2490L325,2933Z" fill="#9ad0cf" stroke="#9ad0cf" stroke-width="1.51"/><path d="M411,1253L231,2136L1202,1705Z" fill="#9ed8bc" stroke="#9ed8bc" stroke-width="1.51"/><path d="M231,2136L209,2181L353,2317Z" fill="#9ed5c8" stroke="#9ed5c8" stroke-width="1.51"/><path d="M325,2933L281,3340L1029,2937Z" fill="#82bcc1" stroke="#82bcc1" stroke-width="1.51"/><path d="M1065,3580L864,4053L1311,3714Z" fill="#5ea0b9" stroke="#5ea0b9" stroke-width="1.51"/><path d="M-24,3144L281,3340L325,2933Z" fill="#8dbfc5" stroke="#8dbfc5" stroke-width="1.51"/><path d="M1967,3110L2506,2458L1808,2525Z" fill="#40a2c9" stroke="#40a2c9" stroke-width="1.51"/><path d="M1967,3110L2450,3094L2506,2458Z" fill="#3594c3" stroke="#3594c3" stroke-width="1.51"/><path d="M2158,3946L1728,3301L1639,3388Z" fill="#3694c2" stroke="#3694c2" stroke-width="1.51"/><path d="M2059,2044L1781,1389L1444,1722Z" fill="#6fc0c9" stroke="#6fc0c9" stroke-width="1.51"/><path d="M2543,1752L1781,1389L2059,2044Z" fill="#65b1c1" stroke="#65b1c1" stroke-width="1.51"/><path d="M-456,2490L-24,3144L325,2933Z" fill="#97c9cf" stroke="#97c9cf" stroke-width="1.51"/><path d="M411,1253L-32,1920L231,2136Z" fill="#abddc4" stroke="#abddc4" stroke-width="1.51"/><path d="M1781,1389L1329,1205L1444,1722Z" fill="#82cac4" stroke="#82cac4" stroke-width="1.51"/><path d="M154,3624L864,4053L1065,3580Z" fill="#73a7b5" stroke="#73a7b5" stroke-width="1.51"/><path d="M1311,3714L2158,3946L1639,3388Z" fill="#3a95c4" stroke="#3a95c4" stroke-width="1.51"/><path d="M154,3624L1065,3580L281,3340Z" fill="#7db0bb" stroke="#7db0bb" stroke-width="1.51"/><path d="M-24,3144L154,3624L281,3340Z" fill="#8ab8c3" stroke="#8ab8c3" stroke-width="1.51"/><path d="M209,2181L-456,2490L353,2317Z" fill="#a0d5cd" stroke="#a0d5cd" stroke-width="1.51"/><path d="M231,2136L-32,1920L209,2181Z" fill="#a4d9c9" stroke="#a4d9c9" stroke-width="1.51"/><path d="M411,1253L1202,1705L1176,1507Z" fill="#98d6bb" stroke="#98d6bb" stroke-width="1.51"/><path d="M2450,3094L2760,2927L2506,2458Z" fill="#318cbf" stroke="#318cbf" stroke-width="1.51"/><path d="M2987,3549L2760,2927L2450,3094Z" fill="#227cb6" stroke="#227cb6" stroke-width="1.51"/><path d="M1329,1205L1257,1103L1176,1507Z" fill="#91d3be" stroke="#91d3be" stroke-width="1.51"/><path d="M1748,770L1257,1103L1329,1205Z" fill="#92d1c3" stroke="#92d1c3" stroke-width="1.51"/><path d="M1781,1389L1748,770L1329,1205Z" fill="#89cbc4" stroke="#89cbc4" stroke-width="1.51"/><path d="M2776,2156L2543,1752L2059,2044Z" fill="#55a1bd" stroke="#55a1bd" stroke-width="1.51"/><path d="M2776,2156L2059,2044L2506,2458Z" fill="#4c9dc1" stroke="#4c9dc1" stroke-width="1.51"/><path d="M864,4053L894,4175L1311,3714Z" fill="#5f9cb6" stroke="#5f9cb6" stroke-width="1.51"/><path d="M639,4217L894,4175L864,4053Z" fill="#6a99ad" stroke="#6a99ad" stroke-width="1.51"/><path d="M1658,4278L2158,3946L1311,3714Z" fill="#358dc0" stroke="#358dc0" stroke-width="1.51"/><path d="M2760,2927L2776,2156L2506,2458Z" fill="#3b90bf" stroke="#3b90bf" stroke-width="1.51"/><path d="M154,3624L617,4143L864,4053Z" fill="#76a3b5" stroke="#76a3b5" stroke-width="1.51"/><path d="M1257,1103L411,1253L1176,1507Z" fill="#9dd8b9" stroke="#9dd8b9" stroke-width="1.51"/><path d="M894,4175L1658,4278L1311,3714Z" fill="#4f94b7" stroke="#4f94b7" stroke-width="1.51"/><path d="M880,4687L1658,4278L894,4175Z" fill="#558dab" stroke="#558dab" stroke-width="1.51"/><path d="M617,4143L639,4217L864,4053Z" fill="#6e9bad" stroke="#6e9bad" stroke-width="1.51"/><path d="M182,4170L639,4217L617,4143Z" fill="#769daf" stroke="#769daf" stroke-width="1.51"/><path d="M-32,1920L-456,2490L209,2181Z" fill="#a6d9cf" stroke="#a6d9cf" stroke-width="1.51"/><path d="M-212,4051L182,4170L154,3624Z" fill="#85a9be" stroke="#85a9be" stroke-width="1.51"/><path d="M-388,1821L-456,2490L-32,1920Z" fill="#addcd2" stroke="#addcd2" stroke-width="1.51"/><path d="M2158,3946L2662,3638L2450,3094Z" fill="#217db7" stroke="#217db7" stroke-width="1.51"/><path d="M2708,3755L2662,3638L2158,3946Z" fill="#1974b2" stroke="#1974b2" stroke-width="1.51"/><path d="M2543,1752L2348,1252L1781,1389Z" fill="#6eb1bd" stroke="#6eb1bd" stroke-width="1.51"/><path d="M2487,954L2348,1252L3143,1624Z" fill="#6ea2b3" stroke="#6ea2b3" stroke-width="1.51"/><path d="M1257,1103L1088,860L411,1253Z" fill="#a5dbba" stroke="#a5dbba" stroke-width="1.51"/><path d="M1748,770L1088,860L1257,1103Z" fill="#97d4c2" stroke="#97d4c2" stroke-width="1.51"/><path d="M411,1253L119,1250L-32,1920Z" fill="#b4e2c0" stroke="#b4e2c0" stroke-width="1.51"/><path d="M313,1066L119,1250L411,1253Z" fill="#b9e4bc" stroke="#b9e4bc" stroke-width="1.51"/><path d="M1350,4907L1897,4332L1658,4278Z" fill="#387eae" stroke="#387eae" stroke-width="1.51"/><path d="M1658,4278L1897,4332L2158,3946Z" fill="#2d7fb5" stroke="#2d7fb5" stroke-width="1.51"/><path d="M2289,4243L2708,3755L2158,3946Z" fill="#1974b2" stroke="#1974b2" stroke-width="1.51"/><path d="M2662,3638L2987,3549L2450,3094Z" fill="#1b77b4" stroke="#1b77b4" stroke-width="1.51"/><path d="M119,1250L-388,1821L-32,1920Z" fill="#b4e1c9" stroke="#b4e1c9" stroke-width="1.51"/><path d="M1088,860L313,1066L411,1253Z" fill="#b1e0b9" stroke="#b1e0b9" stroke-width="1.51"/><path d="M-212,4051L154,3624L-677,3681Z" fill="#8dafc6" stroke="#8dafc6" stroke-width="1.51"/><path d="M154,3624L182,4170L617,4143Z" fill="#7ea5b8" stroke="#7ea5b8" stroke-width="1.51"/><path d="M1897,4332L2289,4243L2158,3946Z" fill="#2377b1" stroke="#2377b1" stroke-width="1.51"/><path d="M2348,1252L1748,770L1781,1389Z" fill="#80bfc1" stroke="#80bfc1" stroke-width="1.51"/><path d="M2760,2927L3190,2234L2776,2156Z" fill="#3c87b5" stroke="#3c87b5" stroke-width="1.51"/><path d="M2708,3755L2987,3549L2662,3638Z" fill="#156dad" stroke="#156dad" stroke-width="1.51"/><path d="M3200,3724L2987,3549L2708,3755Z" fill="#1466a5" stroke="#1466a5" stroke-width="1.51"/><path d="M2776,2156L3143,1624L2543,1752Z" fill="#5595b3" stroke="#5595b3" stroke-width="1.51"/><path d="M2987,3549L3190,2234L2760,2927Z" fill="#2b79af" stroke="#2b79af" stroke-width="1.51"/><path d="M-456,2490L-743,3010L-24,3144Z" fill="#9ecbd6" stroke="#9ecbd6" stroke-width="1.51"/><path d="M-608,1636L-743,3010L-456,2490Z" fill="#addadc" stroke="#addadc" stroke-width="1.51"/><path d="M-677,3681L154,3624L-24,3144Z" fill="#8fb8c9" stroke="#8fb8c9" stroke-width="1.51"/><path d="M530,4851L639,4217L182,4170Z" fill="#7595a9" stroke="#7595a9" stroke-width="1.51"/><path d="M530,4851L880,4687L639,4217Z" fill="#6a8d9f" stroke="#6a8d9f" stroke-width="1.51"/><path d="M639,4217L880,4687L894,4175Z" fill="#6792a7" stroke="#6792a7" stroke-width="1.51"/><path d="M1897,4332L2204,4850L2289,4243Z" fill="#226ea7" stroke="#226ea7" stroke-width="1.51"/><path d="M2348,1252L2487,954L1748,770Z" fill="#7eb7be" stroke="#7eb7be" stroke-width="1.51"/><path d="M3143,1624L2348,1252L2543,1752Z" fill="#649eb6" stroke="#649eb6" stroke-width="1.51"/><path d="M-388,1821L-608,1636L-456,2490Z" fill="#b4e1d4" stroke="#b4e1d4" stroke-width="1.51"/><path d="M119,1250L-608,1636L-388,1821Z" fill="#bbe4cc" stroke="#bbe4cc" stroke-width="1.51"/><path d="M-367,923L-608,1636L119,1250Z" fill="#c3e8c8" stroke="#c3e8c8" stroke-width="1.51"/><path d="M3190,2234L3143,1624L2776,2156Z" fill="#4c89ab" stroke="#4c89ab" stroke-width="1.51"/><path d="M-743,3010L-762,3426L-24,3144Z" fill="#9bc3d3" stroke="#9bc3d3" stroke-width="1.51"/><path d="M-762,3426L-677,3681L-24,3144Z" fill="#97bcd0" stroke="#97bcd0" stroke-width="1.51"/><path d="M2326,554L1843,528L1748,770Z" fill="#8ec4c6" stroke="#8ec4c6" stroke-width="1.51"/><path d="M1748,770L1140,366L1088,860Z" fill="#a0d8c5" stroke="#a0d8c5" stroke-width="1.51"/><path d="M494,239L71,429L313,1066Z" fill="#c9eac3" stroke="#c9eac3" stroke-width="1.51"/><path d="M2987,3549L3200,3724L3190,2234Z" fill="#226ca5" stroke="#226ca5" stroke-width="1.51"/><path d="M2811,4508L3200,3724L2708,3755Z" fill="#0960a3" stroke="#0960a3" stroke-width="1.51"/><path d="M880,4687L1350,4907L1658,4278Z" fill="#4a82a5" stroke="#4a82a5" stroke-width="1.51"/><path d="M2289,4243L2811,4508L2708,3755Z" fill="#0f66a8" stroke="#0f66a8" stroke-width="1.51"/><path d="M1686,344L1140,366L1748,770Z" fill="#9dd4ca" stroke="#9dd4ca" stroke-width="1.51"/><path d="M313,1066L-49,711L119,1250Z" fill="#c2e8c1" stroke="#c2e8c1" stroke-width="1.51"/><path d="M-179,4843L530,4851L182,4170Z" fill="#7b92a7" stroke="#7b92a7" stroke-width="1.51"/><path d="M880,4687L530,4851L1350,4907Z" fill="#5e879f" stroke="#5e879f" stroke-width="1.51"/><path d="M-331,4518L182,4170L-212,4051Z" fill="#85a0b8" stroke="#85a0b8" stroke-width="1.51"/><path d="M71,429L-49,711L313,1066Z" fill="#c9eac5" stroke="#c9eac5" stroke-width="1.51"/><path d="M2320,141L1686,344L1843,528Z" fill="#93c6cb" stroke="#93c6cb" stroke-width="1.51"/><path d="M1843,528L1686,344L1748,770Z" fill="#95cdcc" stroke="#95cdcc" stroke-width="1.51"/><path d="M2487,954L2326,554L1748,770Z" fill="#85b9c0" stroke="#85b9c0" stroke-width="1.51"/><path d="M2856,801L2326,554L2487,954Z" fill="#7eaaba" stroke="#7eaaba" stroke-width="1.51"/><path d="M-49,711L-367,923L119,1250Z" fill="#c8eac7" stroke="#c8eac7" stroke-width="1.51"/><path d="M1350,4907L2204,4850L1897,4332Z" fill="#2f73a7" stroke="#2f73a7" stroke-width="1.51"/><path d="M2204,4850L2811,4508L2289,4243Z" fill="#17619f" stroke="#17619f" stroke-width="1.51"/><path d="M3143,1624L2856,801L2487,954Z" fill="#719cae" stroke="#719cae" stroke-width="1.51"/><path d="M-677,3681L-331,4518L-212,4051Z" fill="#8da8c3" stroke="#8da8c3" stroke-width="1.51"/><path d="M-49,711L-417,335L-367,923Z" fill="#d3eece" stroke="#d3eece" stroke-width="1.51"/><path d="M494,239L313,1066L1088,860Z" fill="#b9e4bc" stroke="#b9e4bc" stroke-width="1.51"/><path d="M915,63L494,239L1140,366Z" fill="#b9e4c4" stroke="#b9e4c4" stroke-width="1.51"/><path d="M1140,366L494,239L1088,860Z" fill="#b4e2c1" stroke="#b4e2c1" stroke-width="1.51"/><path d="M1686,344L1458,111L1140,366Z" fill="#a4d7cc" stroke="#a4d7cc" stroke-width="1.51"/><path d="M1738,-72L1458,111L1686,344Z" fill="#9fd4d1" stroke="#9fd4d1" stroke-width="1.51"/><path d="M2320,141L1843,528L2326,554Z" fill="#8dbdc5" stroke="#8dbdc5" stroke-width="1.51"/><path d="M1458,111L915,63L1140,366Z" fill="#aedfca" stroke="#aedfca" stroke-width="1.51"/><path d="M-331,4518L-179,4843L182,4170Z" fill="#8198b0" stroke="#8198b0" stroke-width="1.51"/><path d="M530,4851L-179,4843L1350,4907Z" fill="#6d8c9f" stroke="#6d8c9f" stroke-width="1.51"/><path d="M2204,4850L2438,5016L2811,4508Z" fill="#155c9a" stroke="#155c9a" stroke-width="1.51"/><path d="M1350,4907L2438,5016L2204,4850Z" fill="#286da4" stroke="#286da4" stroke-width="1.51"/><path d="M-179,4843L2438,5016L1350,4907Z" fill="#4f83a3" stroke="#4f83a3" stroke-width="1.51"/><path d="M2856,801L2801,427L2326,554Z" fill="#82a8ba" stroke="#82a8ba" stroke-width="1.51"/><path d="M3127,-68L2801,427L2856,801Z" fill="#819eb3" stroke="#819eb3" stroke-width="1.51"/><path d="M2801,427L2320,141L2326,554Z" fill="#88b1c1" stroke="#88b1c1" stroke-width="1.51"/><path d="M1458,111L870,-336L915,63Z" fill="#b5e2cc" stroke="#b5e2cc" stroke-width="1.51"/><path d="M-762,3426L-495,4736L-677,3681Z" fill="#94afcc" stroke="#94afcc" stroke-width="1.51"/><path d="M-677,3681L-495,4736L-331,4518Z" fill="#8ca1be" stroke="#8ca1be" stroke-width="1.51"/><path d="M-331,4518L-495,4736L-179,4843Z" fill="#8494af" stroke="#8494af" stroke-width="1.51"/><path d="M2320,141L1738,-72L1686,344Z" fill="#97c9cf" stroke="#97c9cf" stroke-width="1.51"/><path d="M494,239L178,63L71,429Z" fill="#d0edc9" stroke="#d0edc9" stroke-width="1.51"/><path d="M71,429L-417,335L-49,711Z" fill="#d4efce" stroke="#d4efce" stroke-width="1.51"/><path d="M589,-252L178,63L494,239Z" fill="#cdebca" stroke="#cdebca" stroke-width="1.51"/><path d="M589,-252L494,239L915,63Z" fill="#c4e8c6" stroke="#c4e8c6" stroke-width="1.51"/><path d="M178,63L-417,335L71,429Z" fill="#d6efcf" stroke="#d6efcf" stroke-width="1.51"/><path d="M-367,923L-615,3L-608,1636Z" fill="#d4efd2" stroke="#d4efd2" stroke-width="1.51"/><path d="M870,-336L589,-252L915,63Z" fill="#c2e7c9" stroke="#c2e7c9" stroke-width="1.51"/><path d="M178,63L-615,3L-417,335Z" fill="#dcf2d6" stroke="#dcf2d6" stroke-width="1.51"/><path d="M2438,5016L3081,5008L2811,4508Z" fill="#0a5194" stroke="#0a5194" stroke-width="1.51"/><path d="M2811,4508L3081,5008L3200,3724Z" fill="#094f91" stroke="#094f91" stroke-width="1.51"/><path d="M1475,-452L870,-336L1458,111Z" fill="#b0dfd1" stroke="#b0dfd1" stroke-width="1.51"/><path d="M1738,-72L1475,-452L1458,111Z" fill="#a5d7d5" stroke="#a5d7d5" stroke-width="1.51"/><path d="M2019,-424L1475,-452L1738,-72Z" fill="#a3d3d9" stroke="#a3d3d9" stroke-width="1.51"/><path d="M2019,-424L1738,-72L2320,141Z" fill="#98c6d1" stroke="#98c6d1" stroke-width="1.51"/><path d="M2676,-355L2019,-424L2320,141Z" fill="#92bacc" stroke="#92bacc" stroke-width="1.51"/><path d="M1475,-452L490,-429L870,-336Z" fill="#c0e6cf" stroke="#c0e6cf" stroke-width="1.51"/><path d="M870,-336L490,-429L589,-252Z" fill="#caebcc" stroke="#caebcc" stroke-width="1.51"/><path d="M589,-252L490,-429L178,63Z" fill="#d0edce" stroke="#d0edce" stroke-width="1.51"/><path d="M-318,-528L-615,3L178,63Z" fill="#e0f3da" stroke="#e0f3da" stroke-width="1.51"/><path d="M-417,335L-615,3L-367,923Z" fill="#ddf1d6" stroke="#ddf1d6" stroke-width="1.51"/><path d="M-608,1636L-615,3L-743,3010Z" fill="#c4e8d3" stroke="#c4e8d3" stroke-width="1.51"/><path d="M-743,3010L-615,3L-762,3426Z" fill="#b5dfdb" stroke="#b5dfdb" stroke-width="1.51"/><path d="M2801,427L2676,-355L2320,141Z" fill="#8aaec3" stroke="#8aaec3" stroke-width="1.51"/><path d="M3143,1624L3127,-68L2856,801Z" fill="#7696a9" stroke="#7696a9" stroke-width="1.51"/><path d="M3190,2234L3127,-68L3143,1624Z" fill="#678c9f" stroke="#678c9f" stroke-width="1.51"/><path d="M3127,-68L2676,-355L2801,427Z" fill="#87a3bb" stroke="#87a3bb" stroke-width="1.51"/><path d="M3075,-636L1475,-452L2019,-424Z" fill="#9ac1d3" stroke="#9ac1d3" stroke-width="1.51"/><path d="M3075,-636L137,-633L1475,-452Z" fill="#addadb" stroke="#addadb" stroke-width="1.51"/><path d="M1475,-452L137,-633L490,-429Z" fill="#cbebce" stroke="#cbebce" stroke-width="1.51"/><path d="M490,-429L137,-633L178,63Z" fill="#d8f0d2" stroke="#d8f0d2" stroke-width="1.51"/><path d="M137,-633L-318,-528L178,63Z" fill="#dff3d8" stroke="#dff3d8" stroke-width="1.51"/><path d="M2676,-355L3075,-636L2019,-424Z" fill="#93b1cc" stroke="#93b1cc" stroke-width="1.51"/><path d="M3127,-68L3075,-636L2676,-355Z" fill="#8aa1bd" stroke="#8aa1bd" stroke-width="1.51"/></svg>