<svg xmlns="http://www.w3.org/2000/svg" width="2440" height="3840"><path d="M1409,1925L1739,1995L1883,1843Z" fill="#858585" stroke="#858585" stroke-width="1.51"/><path d="M1883,1843L1474,1376L1409,1925Z" fill="#8e8e8e" stroke="#8e8e8e" stroke-width="1.51"/><path d="M1883,1843L1973,1240L1474,1376Z" fill="#8d8d8d" stroke="#8d8d8d" stroke-width="1.51"/><path d="M1973,1240L1632,1121L1474,1376Z" fill="#979797" stroke="#979797" stroke-width="1.51"/><path d="M1409,1925L1622,2500L1739,1995Z" fill="#838383" stroke="#838383" stroke-width="1.51"/><path d="M846,1981L1119,2164L1409,1925Z" fill="#979797" stroke="#979797" stroke-width="1.51"/><path d="M1474,1376L1042,1346L1409,1925Z" fill="#9d9d9d" stroke="#9d9d9d" stroke-width="1.51"/><path d="M1201,1122L1042,1346L1474,1376Z" fill="#a7a7a7" stroke="#a7a7a7" stroke-width="1.51"/><path d="M1883,1843L2244,1370L1973,1240Z" fill="#848484" stroke="#848484" stroke-width="1.51"/><path d="M1739,1995L2188,2155L1883,1843Z" fill="#7a7a7a" stroke="#7a7a7a" stroke-width="1.51"/><path d="M1622,2500L2188,2155L1739,1995Z" fill="#777777" stroke="#777777" stroke-width="1.51"/><path d="M2520,1572L2244,1370L1883,1843Z" fill="#797979" stroke="#797979" stroke-width="1.51"/><path d="M1632,1121L1201,1122L1474,1376Z" fill="#a2a2a2" stroke="#a2a2a2" stroke-width="1.51"/><path d="M1119,2164L1622,2500L1409,1925Z" fill="#898989" stroke="#898989" stroke-width="1.51"/><path d="M833,1535L846,1981L1409,1925Z" fill="#a0a0a0" stroke="#a0a0a0" stroke-width="1.51"/><path d="M1042,1346L833,1535L1409,1925Z" fill="#a4a4a4" stroke="#a4a4a4" stroke-width="1.51"/><path d="M977,1183L833,1535L1042,1346Z" fill="#b1b1b1" stroke="#b1b1b1" stroke-width="1.51"/><path d="M1201,1122L977,1183L1042,1346Z" fill="#b0b0b0" stroke="#b0b0b0" stroke-width="1.51"/><path d="M1119,2164L986,2382L1622,2500Z" fill="#8a8a8a" stroke="#8a8a8a" stroke-width="1.51"/><path d="M846,1981L986,2382L1119,2164Z" fill="#999999" stroke="#999999" stroke-width="1.51"/><path d="M2188,2155L2520,1572L1883,1843Z" fill="#737373" stroke="#737373" stroke-width="1.51"/><path d="M2244,1370L2419,1248L1973,1240Z" fill="#828282" stroke="#828282" stroke-width="1.51"/><path d="M1973,1240L2076,832L1632,1121Z" fill="#939393" stroke="#939393" stroke-width="1.51"/><path d="M2520,1572L2419,1248L2244,1370Z" fill="#757575" stroke="#757575" stroke-width="1.51"/><path d="M1201,1122L1250,837L977,1183Z" fill="#b0b0b0" stroke="#b0b0b0" stroke-width="1.51"/><path d="M1632,1121L1250,837L1201,1122Z" fill="#a8a8a8" stroke="#a8a8a8" stroke-width="1.51"/><path d="M1811,630L1250,837L1632,1121Z" fill="#a3a3a3" stroke="#a3a3a3" stroke-width="1.51"/><path d="M2419,1248L2076,832L1973,1240Z" fill="#888888" stroke="#888888" stroke-width="1.51"/><path d="M1622,2500L2227,2748L2188,2155Z" fill="#6b6b6b" stroke="#6b6b6b" stroke-width="1.51"/><path d="M1227,2743L1714,2779L1622,2500Z" fill="#787878" stroke="#787878" stroke-width="1.51"/><path d="M2520,1572L2757,1115L2419,1248Z" fill="#6e6e6e" stroke="#6e6e6e" stroke-width="1.51"/><path d="M2188,2155L2666,1967L2520,1572Z" fill="#646464" stroke="#646464" stroke-width="1.51"/><path d="M2565,2480L2666,1967L2188,2155Z" fill="#5c5c5c" stroke="#5c5c5c" stroke-width="1.51"/><path d="M986,2382L1227,2743L1622,2500Z" fill="#848484" stroke="#848484" stroke-width="1.51"/><path d="M2076,832L1811,630L1632,1121Z" fill="#999999" stroke="#999999" stroke-width="1.51"/><path d="M1714,2779L2227,2748L1622,2500Z" fill="#6c6c6c" stroke="#6c6c6c" stroke-width="1.51"/><path d="M2227,2748L2565,2480L2188,2155Z" fill="#5e5e5e" stroke="#5e5e5e" stroke-width="1.51"/><path d="M291,2470L503,2670L986,2382Z" fill="#9e9e9e" stroke="#9e9e9e" stroke-width="1.51"/><path d="M986,2382L779,2873L1227,2743Z" fill="#8b8b8b" stroke="#8b8b8b" stroke-width="1.51"/><path d="M833,1535L345,1894L846,1981Z" fill="#afafaf" stroke="#afafaf" stroke-width="1.51"/><path d="M234,1481L345,1894L833,1535Z" fill="#b9b9b9" stroke="#b9b9b9" stroke-width="1.51"/><path d="M234,1481L833,1535L187,1262Z" fill="#c1c1c1" stroke="#c1c1c1" stroke-width="1.51"/><path d="M2419,1248L2586,798L2076,832Z" fill="#808080" stroke="#808080" stroke-width="1.51"/><path d="M2251,104L1813,87L1811,630Z" fill="#9f9f9f" stroke="#9f9f9f" stroke-width="1.51"/><path d="M2924,1645L2757,1115L2520,1572Z" fill="#636363" stroke="#636363" stroke-width="1.51"/><path d="M2666,1967L2924,1645L2520,1572Z" fill="#5d5d5d" stroke="#5d5d5d" stroke-width="1.51"/><path d="M3054,1827L2924,1645L2666,1967Z" fill="#545454" stroke="#545454" stroke-width="1.51"/><path d="M2757,1115L2586,798L2419,1248Z" fill="#727272" stroke="#727272" stroke-width="1.51"/><path d="M2227,2748L2521,2935L2565,2480Z" fill="#525252" stroke="#525252" stroke-width="1.51"/><path d="M1714,2779L2067,3030L2227,2748Z" fill="#626262" stroke="#626262" stroke-width="1.51"/><path d="M1609,3149L2067,3030L1714,2779Z" fill="#666666" stroke="#666666" stroke-width="1.51"/><path d="M1250,837L607,790L977,1183Z" fill="#bababa" stroke="#bababa" stroke-width="1.51"/><path d="M617,257L607,790L1250,837Z" fill="#c6c6c6" stroke="#c6c6c6" stroke-width="1.51"/><path d="M1227,2743L1609,3149L1714,2779Z" fill="#727272" stroke="#727272" stroke-width="1.51"/><path d="M1038,3263L1609,3149L1227,2743Z" fill="#767676" stroke="#767676" stroke-width="1.51"/><path d="M187,1262L833,1535L977,1183Z" fill="#bdbdbd" stroke="#bdbdbd" stroke-width="1.51"/><path d="M503,2670L779,2873L986,2382Z" fill="#969696" stroke="#969696" stroke-width="1.51"/><path d="M2924,1645L3033,794L2757,1115Z" fill="#636363" stroke="#636363" stroke-width="1.51"/><path d="M2914,2381L3054,1827L2666,1967Z" fill="#4f4f4f" stroke="#4f4f4f" stroke-width="1.51"/><path d="M2565,2480L2914,2381L2666,1967Z" fill="#505050" stroke="#505050" stroke-width="1.51"/><path d="M2776,2920L2914,2381L2565,2480Z" fill="#474747" stroke="#474747" stroke-width="1.51"/><path d="M291,2470L846,1981L345,1894Z" fill="#ababab" stroke="#ababab" stroke-width="1.51"/><path d="M291,2470L986,2382L846,1981Z" fill="#a1a1a1" stroke="#a1a1a1" stroke-width="1.51"/><path d="M2067,3030L2521,2935L2227,2748Z" fill="#565656" stroke="#565656" stroke-width="1.51"/><path d="M2776,2920L2521,2935L2601,3226Z" fill="#414141" stroke="#414141" stroke-width="1.51"/><path d="M607,790L187,1262L977,1183Z" fill="#c4c4c4" stroke="#c4c4c4" stroke-width="1.51"/><path d="M-122,1917L345,1894L234,1481Z" fill="#bebebe" stroke="#bebebe" stroke-width="1.51"/><path d="M-208,2217L291,2470L345,1894Z" fill="#b3b3b3" stroke="#b3b3b3" stroke-width="1.51"/><path d="M238,3137L830,3070L779,2873Z" fill="#909090" stroke="#909090" stroke-width="1.51"/><path d="M779,2873L830,3070L1227,2743Z" fill="#888888" stroke="#888888" stroke-width="1.51"/><path d="M645,3424L830,3070L238,3137Z" fill="#8c8c8c" stroke="#8c8c8c" stroke-width="1.51"/><path d="M187,1262L139,1218L234,1481Z" fill="#cacaca" stroke="#cacaca" stroke-width="1.51"/><path d="M607,790L139,1218L187,1262Z" fill="#cdcdcd" stroke="#cdcdcd" stroke-width="1.51"/><path d="M1811,630L1314,139L1250,837Z" fill="#aeaeae" stroke="#aeaeae" stroke-width="1.51"/><path d="M607,790L102,646L139,1218Z" fill="#d1d1d1" stroke="#d1d1d1" stroke-width="1.51"/><path d="M1813,87L1314,139L1811,630Z" fill="#ababab" stroke="#ababab" stroke-width="1.51"/><path d="M830,3070L1038,3263L1227,2743Z" fill="#818181" stroke="#818181" stroke-width="1.51"/><path d="M1590,3476L2067,3030L1609,3149Z" fill="#626262" stroke="#626262" stroke-width="1.51"/><path d="M2601,3226L2521,2935L2067,3030Z" fill="#4c4c4c" stroke="#4c4c4c" stroke-width="1.51"/><path d="M2521,2935L2776,2920L2565,2480Z" fill="#484848" stroke="#484848" stroke-width="1.51"/><path d="M2251,104L1811,630L2076,832Z" fill="#979797" stroke="#979797" stroke-width="1.51"/><path d="M3033,794L2586,798L2757,1115Z" fill="#6c6c6c" stroke="#6c6c6c" stroke-width="1.51"/><path d="M2813,402L2627,395L2586,798Z" fill="#787878" stroke="#787878" stroke-width="1.51"/><path d="M2586,798L2627,395L2076,832Z" fill="#828282" stroke="#828282" stroke-width="1.51"/><path d="M3054,1827L3033,794L2924,1645Z" fill="#5a5a5a" stroke="#5a5a5a" stroke-width="1.51"/><path d="M1038,3263L1590,3476L1609,3149Z" fill="#6c6c6c" stroke="#6c6c6c" stroke-width="1.51"/><path d="M-185,1660L-122,1917L234,1481Z" fill="#c4c4c4" stroke="#c4c4c4" stroke-width="1.51"/><path d="M2627,395L2251,104L2076,832Z" fill="#8c8c8c" stroke="#8c8c8c" stroke-width="1.51"/><path d="M617,257L355,516L607,790Z" fill="#d2d2d2" stroke="#d2d2d2" stroke-width="1.51"/><path d="M139,1218L-185,1660L234,1481Z" fill="#c9c9c9" stroke="#c9c9c9" stroke-width="1.51"/><path d="M2312,3468L2601,3226L2067,3030Z" fill="#4b4b4b" stroke="#4b4b4b" stroke-width="1.51"/><path d="M1314,139L617,257L1250,837Z" fill="#c0c0c0" stroke="#c0c0c0" stroke-width="1.51"/><path d="M3033,794L2813,402L2586,798Z" fill="#707070" stroke="#707070" stroke-width="1.51"/><path d="M2627,395L2329,-208L2251,104Z" fill="#8c8c8c" stroke="#8c8c8c" stroke-width="1.51"/><path d="M-525,1655L-185,1660L-564,954Z" fill="#d4d4d4" stroke="#d4d4d4" stroke-width="1.51"/><path d="M2329,-208L2065,-15L2251,104Z" fill="#9a9a9a" stroke="#9a9a9a" stroke-width="1.51"/><path d="M2251,104L2065,-15L1813,87Z" fill="#9f9f9f" stroke="#9f9f9f" stroke-width="1.51"/><path d="M1468,-322L1290,-241L1314,139Z" fill="#bdbdbd" stroke="#bdbdbd" stroke-width="1.51"/><path d="M1314,139L727,-15L617,257Z" fill="#cccccc" stroke="#cccccc" stroke-width="1.51"/><path d="M355,516L102,646L607,790Z" fill="#d4d4d4" stroke="#d4d4d4" stroke-width="1.51"/><path d="M617,257L404,358L355,516Z" fill="#d6d6d6" stroke="#d6d6d6" stroke-width="1.51"/><path d="M-208,2217L19,2648L291,2470Z" fill="#aeaeae" stroke="#aeaeae" stroke-width="1.51"/><path d="M291,2470L19,2648L503,2670Z" fill="#a5a5a5" stroke="#a5a5a5" stroke-width="1.51"/><path d="M645,3424L1259,3597L1038,3263Z" fill="#777777" stroke="#777777" stroke-width="1.51"/><path d="M-208,2217L345,1894L-122,1917Z" fill="#bbbbbb" stroke="#bbbbbb" stroke-width="1.51"/><path d="M2032,3716L2312,3468L2067,3030Z" fill="#4f4f4f" stroke="#4f4f4f" stroke-width="1.51"/><path d="M404,358L102,646L355,516Z" fill="#d9d9d9" stroke="#d9d9d9" stroke-width="1.51"/><path d="M-568,2206L-208,2217L-122,1917Z" fill="#bebebe" stroke="#bebebe" stroke-width="1.51"/><path d="M1590,3476L2032,3716L2067,3030Z" fill="#575757" stroke="#575757" stroke-width="1.51"/><path d="M1038,3263L1259,3597L1590,3476Z" fill="#6b6b6b" stroke="#6b6b6b" stroke-width="1.51"/><path d="M645,3424L1038,3263L830,3070Z" fill="#838383" stroke="#838383" stroke-width="1.51"/><path d="M238,3137L779,2873L503,2670Z" fill="#969696" stroke="#969696" stroke-width="1.51"/><path d="M18,3185L238,3137L19,2648Z" fill="#9f9f9f" stroke="#9f9f9f" stroke-width="1.51"/><path d="M19,2648L238,3137L503,2670Z" fill="#a0a0a0" stroke="#a0a0a0" stroke-width="1.51"/><path d="M-192,178L-303,715L102,646Z" fill="#e3e3e3" stroke="#e3e3e3" stroke-width="1.51"/><path d="M617,257L473,-145L404,358Z" fill="#d8d8d8" stroke="#d8d8d8" stroke-width="1.51"/><path d="M1290,-241L727,-15L1314,139Z" fill="#c5c5c5" stroke="#c5c5c5" stroke-width="1.51"/><path d="M1468,-322L1314,139L1813,87Z" fill="#b4b4b4" stroke="#b4b4b4" stroke-width="1.51"/><path d="M3026,3472L2966,3272L2601,3226Z" fill="#323232" stroke="#323232" stroke-width="1.51"/><path d="M1890,3977L2032,3716L1590,3476Z" fill="#4e4e4e" stroke="#4e4e4e" stroke-width="1.51"/><path d="M2776,2920L2966,3272L2914,2381Z" fill="#3c3c3c" stroke="#3c3c3c" stroke-width="1.51"/><path d="M2914,2381L3026,3472L3054,1827Z" fill="#3f3f3f" stroke="#3f3f3f" stroke-width="1.51"/><path d="M2601,3226L2966,3272L2776,2920Z" fill="#393939" stroke="#393939" stroke-width="1.51"/><path d="M3026,3472L2601,3226L2312,3468Z" fill="#373737" stroke="#373737" stroke-width="1.51"/><path d="M809,-490L473,-145L727,-15Z" fill="#d9d9d9" stroke="#d9d9d9" stroke-width="1.51"/><path d="M2065,-15L1468,-322L1813,87Z" fill="#ababab" stroke="#ababab" stroke-width="1.51"/><path d="M238,3137L482,3466L645,3424Z" fill="#8c8c8c" stroke="#8c8c8c" stroke-width="1.51"/><path d="M645,3424L783,3873L1259,3597Z" fill="#737373" stroke="#737373" stroke-width="1.51"/><path d="M2065,-15L2236,-482L1468,-322Z" fill="#a8a8a8" stroke="#a8a8a8" stroke-width="1.51"/><path d="M2799,-336L2329,-208L2627,395Z" fill="#858585" stroke="#858585" stroke-width="1.51"/><path d="M-185,1660L-525,1655L-122,1917Z" fill="#c8c8c8" stroke="#c8c8c8" stroke-width="1.51"/><path d="M-376,2927L18,3185L19,2648Z" fill="#a5a5a5" stroke="#a5a5a5" stroke-width="1.51"/><path d="M-564,954L-185,1660L139,1218Z" fill="#d5d5d5" stroke="#d5d5d5" stroke-width="1.51"/><path d="M238,3137L18,3185L482,3466Z" fill="#949494" stroke="#949494" stroke-width="1.51"/><path d="M-376,2927L19,2648L-208,2217Z" fill="#afafaf" stroke="#afafaf" stroke-width="1.51"/><path d="M-192,178L102,646L404,358Z" fill="#dfdfdf" stroke="#dfdfdf" stroke-width="1.51"/><path d="M102,646L-303,715L139,1218Z" fill="#d9d9d9" stroke="#d9d9d9" stroke-width="1.51"/><path d="M727,-15L473,-145L617,257Z" fill="#d7d7d7" stroke="#d7d7d7" stroke-width="1.51"/><path d="M809,-490L727,-15L1290,-241Z" fill="#cfcfcf" stroke="#cfcfcf" stroke-width="1.51"/><path d="M2623,4211L3026,3472L2312,3468Z" fill="#2d2d2d" stroke="#2d2d2d" stroke-width="1.51"/><path d="M2966,3272L3026,3472L2914,2381Z" fill="#353535" stroke="#353535" stroke-width="1.51"/><path d="M-647,1864L-568,2206L-122,1917Z" fill="#c4c4c4" stroke="#c4c4c4" stroke-width="1.51"/><path d="M2032,3716L2623,4211L2312,3468Z" fill="#393939" stroke="#393939" stroke-width="1.51"/><path d="M1579,4019L1890,3977L1590,3476Z" fill="#505050" stroke="#505050" stroke-width="1.51"/><path d="M1579,4019L1590,3476L1259,3597Z" fill="#5c5c5c" stroke="#5c5c5c" stroke-width="1.51"/><path d="M-564,954L-647,1864L-525,1655Z" fill="#d4d4d4" stroke="#d4d4d4" stroke-width="1.51"/><path d="M-525,1655L-647,1864L-122,1917Z" fill="#c9c9c9" stroke="#c9c9c9" stroke-width="1.51"/><path d="M1254,4025L1579,4019L1259,3597Z" fill="#595959" stroke="#595959" stroke-width="1.51"/><path d="M482,3466L783,3873L645,3424Z" fill="#7d7d7d" stroke="#7d7d7d" stroke-width="1.51"/><path d="M382,3956L783,3873L482,3466Z" fill="#797979" stroke="#797979" stroke-width="1.51"/><path d="M2329,-208L2236,-482L2065,-15Z" fill="#9c9c9c" stroke="#9c9c9c" stroke-width="1.51"/><path d="M1468,-322L1242,-621L1290,-241Z" fill="#c1c1c1" stroke="#c1c1c1" stroke-width="1.51"/><path d="M2799,-336L2236,-482L2329,-208Z" fill="#8f8f8f" stroke="#8f8f8f" stroke-width="1.51"/><path d="M783,3873L1254,4025L1259,3597Z" fill="#646464" stroke="#646464" stroke-width="1.51"/><path d="M2236,-482L1471,-576L1468,-322Z" fill="#b2b2b2" stroke="#b2b2b2" stroke-width="1.51"/><path d="M-303,715L-564,954L139,1218Z" fill="#dcdcdc" stroke="#dcdcdc" stroke-width="1.51"/><path d="M-382,179L-564,954L-303,715Z" fill="#e6e6e6" stroke="#e6e6e6" stroke-width="1.51"/><path d="M-568,2206L-376,2927L-208,2217Z" fill="#b7b7b7" stroke="#b7b7b7" stroke-width="1.51"/><path d="M-137,3608L382,3956L482,3466Z" fill="#848484" stroke="#848484" stroke-width="1.51"/><path d="M-376,2927L-350,3042L18,3185Z" fill="#a4a4a4" stroke="#a4a4a4" stroke-width="1.51"/><path d="M-585,3431L-350,3042L-376,2927Z" fill="#a4a4a4" stroke="#a4a4a4" stroke-width="1.51"/><path d="M1242,-621L809,-490L1290,-241Z" fill="#cacaca" stroke="#cacaca" stroke-width="1.51"/><path d="M3033,794L2799,-336L2813,402Z" fill="#737373" stroke="#737373" stroke-width="1.51"/><path d="M2813,402L2799,-336L2627,395Z" fill="#7b7b7b" stroke="#7b7b7b" stroke-width="1.51"/><path d="M1471,-576L1242,-621L1468,-322Z" fill="#bfbfbf" stroke="#bfbfbf" stroke-width="1.51"/><path d="M2656,-731L1242,-621L1471,-576Z" fill="#b1b1b1" stroke="#b1b1b1" stroke-width="1.51"/><path d="M473,-145L-192,178L404,358Z" fill="#e1e1e1" stroke="#e1e1e1" stroke-width="1.51"/><path d="M-382,179L-192,178L-447,-31Z" fill="#eeeeee" stroke="#eeeeee" stroke-width="1.51"/><path d="M-192,178L-382,179L-303,715Z" fill="#e9e9e9" stroke="#e9e9e9" stroke-width="1.51"/><path d="M-17,-293L-192,178L473,-145Z" fill="#e8e8e8" stroke="#e8e8e8" stroke-width="1.51"/><path d="M-137,3608L482,3466L18,3185Z" fill="#919191" stroke="#919191" stroke-width="1.51"/><path d="M824,4618L1238,4616L1254,4025Z" fill="#535353" stroke="#535353" stroke-width="1.51"/><path d="M1254,4025L1555,4280L1579,4019Z" fill="#4f4f4f" stroke="#4f4f4f" stroke-width="1.51"/><path d="M1579,4019L1555,4280L1890,3977Z" fill="#484848" stroke="#484848" stroke-width="1.51"/><path d="M1890,3977L2623,4211L2032,3716Z" fill="#3b3b3b" stroke="#3b3b3b" stroke-width="1.51"/><path d="M1238,4616L1555,4280L1254,4025Z" fill="#4e4e4e" stroke="#4e4e4e" stroke-width="1.51"/><path d="M-350,3042L-137,3608L18,3185Z" fill="#9d9d9d" stroke="#9d9d9d" stroke-width="1.51"/><path d="M422,-791L473,-145L809,-490Z" fill="#dfdfdf" stroke="#dfdfdf" stroke-width="1.51"/><path d="M422,-791L-17,-293L473,-145Z" fill="#e7e7e7" stroke="#e7e7e7" stroke-width="1.51"/><path d="M2342,4572L2623,4211L1890,3977Z" fill="#2f2f2f" stroke="#2f2f2f" stroke-width="1.51"/><path d="M2236,-482L2656,-731L1471,-576Z" fill="#a4a4a4" stroke="#a4a4a4" stroke-width="1.51"/><path d="M2799,-336L2656,-731L2236,-482Z" fill="#8b8b8b" stroke="#8b8b8b" stroke-width="1.51"/><path d="M2799,-336L2876,-627L2656,-731Z" fill="#828282" stroke="#828282" stroke-width="1.51"/><path d="M3033,794L2876,-627L2799,-336Z" fill="#787878" stroke="#787878" stroke-width="1.51"/><path d="M-17,-293L-447,-31L-192,178Z" fill="#eeeeee" stroke="#eeeeee" stroke-width="1.51"/><path d="M-382,179L-447,-31L-564,954Z" fill="#ebebeb" stroke="#ebebeb" stroke-width="1.51"/><path d="M2623,4211L2987,4143L3026,3472Z" fill="#1e1e1e" stroke="#1e1e1e" stroke-width="1.51"/><path d="M-350,3042L-585,3431L-137,3608Z" fill="#9d9d9d" stroke="#9d9d9d" stroke-width="1.51"/><path d="M-137,3608L-172,4055L382,3956Z" fill="#828282" stroke="#828282" stroke-width="1.51"/><path d="M-568,2206L-585,3431L-376,2927Z" fill="#aeaeae" stroke="#aeaeae" stroke-width="1.51"/><path d="M-647,1864L-585,3431L-568,2206Z" fill="#b8b8b8" stroke="#b8b8b8" stroke-width="1.51"/><path d="M-17,-293L-151,-582L-447,-31Z" fill="#f2f2f2" stroke="#f2f2f2" stroke-width="1.51"/><path d="M1242,-621L422,-791L809,-490Z" fill="#d8d8d8" stroke="#d8d8d8" stroke-width="1.51"/><path d="M2656,-731L422,-791L1242,-621Z" fill="#c0c0c0" stroke="#c0c0c0" stroke-width="1.51"/><path d="M2623,4211L3030,4361L2987,4143Z" fill="#181818" stroke="#181818" stroke-width="1.51"/><path d="M1555,4280L1927,4532L1890,3977Z" fill="#404040" stroke="#404040" stroke-width="1.51"/><path d="M1238,4616L1927,4532L1555,4280Z" fill="#424242" stroke="#424242" stroke-width="1.51"/><path d="M824,4618L1254,4025L783,3873Z" fill="#606060" stroke="#606060" stroke-width="1.51"/><path d="M824,4618L783,3873L382,3956Z" fill="#6a6a6a" stroke="#6a6a6a" stroke-width="1.51"/><path d="M422,-791L-151,-582L-17,-293Z" fill="#ededed" stroke="#ededed" stroke-width="1.51"/><path d="M1927,4532L2342,4572L1890,3977Z" fill="#353535" stroke="#353535" stroke-width="1.51"/><path d="M1238,4616L2342,4572L1927,4532Z" fill="#373737" stroke="#373737" stroke-width="1.51"/><path d="M-533,4147L-172,4055L-137,3608Z" fill="#868686" stroke="#868686" stroke-width="1.51"/><path d="M2342,4572L3030,4361L2623,4211Z" fill="#1c1c1c" stroke="#1c1c1c" stroke-width="1.51"/><path d="M2987,4143L3030,4361L3026,3472Z" fill="#191919" stroke="#191919" stroke-width="1.51"/><path d="M3026,3472L3030,4361L3054,1827Z" fill="#2f2f2f" stroke="#2f2f2f" stroke-width="1.51"/><path d="M399,4640L824,4618L382,3956Z" fill="#666666" stroke="#666666" stroke-width="1.51"/><path d="M422,-791L-296,-753L-151,-582Z" fill="#f1f1f1" stroke="#f1f1f1" stroke-width="1.51"/><path d="M-151,-582L-296,-753L-447,-31Z" fill="#f5f5f5" stroke="#f5f5f5" stroke-width="1.51"/><path d="M-212,4380L399,4640L382,3956Z" fill="#717171" stroke="#717171" stroke-width="1.51"/><path d="M824,4618L399,4640L1238,4616Z" fill="#595959" stroke="#595959" stroke-width="1.51"/><path d="M-172,4055L-212,4380L382,3956Z" fill="#7a7a7a" stroke="#7a7a7a" stroke-width="1.51"/><path d="M-533,4147L-212,4380L-172,4055Z" fill="#7f7f7f" stroke="#7f7f7f" stroke-width="1.51"/><path d="M-585,3431L-533,4147L-137,3608Z" fill="#909090" stroke="#909090" stroke-width="1.51"/><path d="M-585,3431L-510,4494L-533,4147Z" fill="#878787" stroke="#878787" stroke-width="1.51"/><path d="M-533,4147L-510,4494L-212,4380Z" fill="#7c7c7c" stroke="#7c7c7c" stroke-width="1.51"/><path d="M-212,4380L-510,4494L399,4640Z" fill="#727272" stroke="#727272" stroke-width="1.51"/></svg>